<?xml version="1.0" standalone="no"?>
<!DOCTYPE svg PUBLIC "-//W3C//DTD SVG 1.1//EN" "http://www.w3.org/Graphics/SVG/1.1/DTD/svg11.dtd" >
<svg xmlns="http://www.w3.org/2000/svg">
<metadata>
Created by FontPrep 20130207 at Wed Apr  2 21:10:00 2014
 By Paulo Ragonha
Copyright (c) 2011, Andrew Paglinawan (www.andrewpaglinawan.com), with Reserved Font Name "Quicksand".
</metadata>
<defs>
<font id="8ab5de67efcd0e87bc120219c78ce468" horiz-adv-x='1024' >
  <font-face 
    font-family="Quicksand-Light"
    font-weight="300"
    font-stretch="normal"
    units-per-em="2048"
    panose-1="2 7 3 3 0 0 0 6 0 0"
    ascent="1638"
    descent="-410"
    x-height="995"
    cap-height="1434"
    bbox="-49 -438.036 2321 1890"
    underline-thickness="102"
    underline-position="-102"
    unicode-range="U+0020-2122"
  />
<missing-glyph horiz-adv-x="1024" 
 />
    <glyph glyph-name=".notdef" horiz-adv-x="1024" 
 />
    <glyph glyph-name=".notdef" horiz-adv-x="1024" 
 />
    <glyph glyph-name=".null" horiz-adv-x="0" 
 />
    <glyph glyph-name="nonmarkingreturn" horiz-adv-x="681" 
 />
    <glyph glyph-name="space" unicode=" " horiz-adv-x="614" 
 />
    <glyph glyph-name="space" unicode="&#xa0;" horiz-adv-x="614" 
 />
    <glyph glyph-name="exclam" unicode="!" horiz-adv-x="516" 
d="M190 27v49q0 25 27 24q8 0 16 -7t9 -17v-49q0 -27 -26 -27t-26 27zM190 342v1065q0 27 26 27t26 -27v-1065q0 -25 -26 -25t-26 25z" />
    <glyph glyph-name="quotedbl" unicode="&#x22;" horiz-adv-x="839" 
d="M301 1438q33 0 33 -35q0 -2 -10 -49l-117 -412q-12 -37 -35 -37q-35 0 -29 39l62 440q8 53 57 54h39zM670 1438q33 0 32 -35q0 -2 -10 -49l-117 -412q-12 -37 -34 -37q-35 0 -29 39l61 440q8 53 58 54h39z" />
    <glyph glyph-name="numbersign" unicode="#" horiz-adv-x="1433" 
 />
    <glyph glyph-name="dollar" unicode="$" horiz-adv-x="1294" 
d="M676 41q190 2 326 102q136 101 136 235t-119 216q-120 82 -343 127v-680zM221 1090q0 -229 410 -314v623q-168 -10 -289 -98t-121 -211zM676 -55q0 -45 -25 -45q-11 0 -13 4q-3 4 -5 6t-2 7v77q-258 16 -494 207q-20 15 -4 33t33 4q223 -180 465 -197v688
q-199 39 -316 117q-141 94 -141 239q2 145 134 247t323 114v65q2 33 20 35q25 0 25 -45v-55q82 -2 168 -32t135 -58t123 -78q20 -12 8 -32t-33 -7q-74 49 -121 76t-126 55t-154 29v-631q233 -47 358 -127q152 -100 151 -260q-1 -159 -151 -271t-358 -116v-49z" />
    <glyph glyph-name="ampersand" unicode="&#x26;" horiz-adv-x="1425" 
d="M954 627q131 0 142 127q0 14 -8 48t18 42q29 4 31 -21q8 -31 8 -69q2 -92 -64 -142q-35 -29 -75 -34q14 -55 14 -119q0 -191 -134 -325t-326 -134t-326 134q-134 135 -134 325q0 125 62 230q61 105 164 167q-106 100 -106 242t96 238q96 98 234 98t235 -98t98 -234
q0 -27 -27 -27q-10 0 -18 8t-9 19q1 116 -81 198t-198 82t-197 -82t-81 -198q0 -147 117 -230l8 -10q6 -20 -5 -28t-17 -9q-99 -53 -161 -151t-62 -215q0 -168 118 -288t289 -120q170 0 290 119t120 289q0 55 -17 114h-12q-27 4 -72 5q-178 0 -256 -74q-49 -49 -49 -127
l2 -39l2 -12q8 -23 -14 -35h-8q-16 0 -27 18q-8 29 -8 68q0 100 65 164q94 88 293 88q47 0 74 -2h12z" />
    <glyph glyph-name="quotesingle" unicode="'" horiz-adv-x="471" 
d="M301 1438q33 0 33 -35q0 -2 -10 -49l-117 -412q-12 -37 -35 -37q-35 0 -29 39l62 440q8 53 57 54h39z" />
    <glyph glyph-name="parenleft" unicode="(" horiz-adv-x="880" 
d="M205 620q0 -344 97 -551q97 -208 284 -208q31 0 30 -29q0 -12 -9 -21t-21 -10q-229 0 -342 250q-98 215 -98 569t98 572q113 250 342 248q31 0 30 -29q0 -12 -9 -21t-21 -10q-188 0 -284 -208t-97 -552z" />
    <glyph glyph-name="parenright" unicode=")" horiz-adv-x="880" 
d="M154 -199q-12 -1 -22 9t-9 22q0 29 31 29q186 0 283 208t98 552q0 344 -95 546q-98 213 -286 213q-12 0 -22 10t-9 21q0 29 31 29q229 2 342 -248q98 -218 98 -572t-98 -569q-113 -250 -342 -250z" />
    <glyph glyph-name="asterisk" unicode="*" horiz-adv-x="880" 
d="M156 1000q0 22 28 34l211 101l-211 100q-29 14 -28 39q0 39 41 43q14 0 32 -12l187 -127l-17 223q-1 17 11 31t30 14t30 -13t11 -32l-16 -223l186 127q17 12 33 12t28 -13t13 -35q0 -22 -29 -34l-211 -100l211 -101q29 -12 29 -34t-12 -34q-25 -27 -62 -1l-186 127
l16 -224q2 -18 -10 -31q-13 -13 -31 -13t-30 12q-12 14 -11 32l17 224l-187 -127q-37 -25 -55 -5q-18 18 -18 40z" />
    <glyph glyph-name="plus" unicode="+" horiz-adv-x="1269" 
d="M600 238v432h-432q-37 0 -37 36t37 35h432v435q0 35 37 34q12 0 23 -10t12 -24v-435h434q12 0 23 -10q26 -24 0 -50q-11 -11 -23 -11h-434v-432q0 -14 -12 -26t-23 -11q-37 0 -37 37z" />
    <glyph glyph-name="comma" unicode="," horiz-adv-x="471" 
d="M111 -184q0 16 16 26q104 57 96 158q-55 14 -55 72v43q0 29 19 48t49 19t48 -19q19 -19 19 -48v-52q-1 -159 -61 -219t-96 -60t-35 32z" />
    <glyph glyph-name="hyphen" unicode="-" horiz-adv-x="835" 
d="M156 696q-20 0 -21 19q0 23 21 22h467q18 0 18 -20t-18 -21h-467z" />
    <glyph glyph-name="hyphen" unicode="&#xad;" horiz-adv-x="835" 
d="M156 696q-20 0 -21 19q0 23 21 22h467q18 0 18 -20t-18 -21h-467z" />
    <glyph glyph-name="period" unicode="." horiz-adv-x="471" 
d="M168 53q0 29 20 49t50 20t49 -20q20 -20 20 -49t-20 -49t-49 -20t-50 20q-20 20 -20 49z" />
    <glyph glyph-name="slash" unicode="/" horiz-adv-x="864" 
d="M184 0q-14 0 -16 2q-23 10 -12 35l579 1376q5 10 15 14t18 0q25 -8 16 -32l-583 -1379q-3 -16 -17 -16z" />
    <glyph glyph-name="zero" unicode="0" horiz-adv-x="1454" 
d="M184 717q0 -274 133 -473q125 -193 305 -193t304 193q133 194 133 474t-133 472q-124 193 -304 193t-305 -193q-133 -199 -133 -473zM133 718q0 294 141 504q142 210 348 210t347 -210t141 -504t-140 -505t-347 -211t-349 211q-141 211 -141 505z" />
    <glyph glyph-name="one" unicode="1" horiz-adv-x="686" 
d="M403 27q0 -27 -26 -27q-10 0 -18 8q-7 8 -7 19v1333l-250 -150q-4 -2 -17 -2t-17 13q-12 23 10 34l282 167v1q17 17 33 6q17 -11 10 -32v-1370z" />
    <glyph glyph-name="two" unicode="2" horiz-adv-x="1208" 
d="M954 51q25 1 25 -25t-25 -26h-835q-17 0 -21 10q-16 18 2 37l693 625q135 125 135 291q0 167 -115 293t-282 126t-285 -106l-72 -66q-20 -16 -39 2t4 35l72 68q133 119 323 119t326 -150q119 -134 119 -324t-154 -325l-643 -584h772z" />
    <glyph glyph-name="three" unicode="3" horiz-adv-x="1249" 
d="M494 2h-2q-199 0 -336 139q-18 19 0 37t37 0q125 -123 301 -123t300 124t124 300t-123 301q-127 123 -299 123q-17 0 -27 15q-18 20 0 38l414 426h-633q-27 0 -27 27t27 27h694q27 0 27 -27q0 -11 -8 -23l-422 -432q174 -16 290 -137q139 -139 139 -336t-139 -340
q-143 -139 -337 -139z" />
    <glyph glyph-name="four" unicode="4" horiz-adv-x="1359" 
d="M963 356v971l-785 -971h785zM1016 356h125q27 0 26 -24q0 -27 -26 -27h-125v-278q0 -27 -27 -27q-10 0 -18 8t-8 19v278h-838q-8 0 -21 12t0 29l865 1075q19 20 43 -4q0 -4 2 -4l2 -2v-1055z" />
    <glyph glyph-name="five" unicode="5" horiz-adv-x="1239" 
d="M471 0q-197 0 -338 141q-20 15 -1 35t38 2q129 -125 302 -125t298 125t125 301t-124 299t-298 123t-303 -123q-4 -8 -15 -8t-20 6q-4 0 -4 4q-9 9 -6 23l72 604q6 27 32 27h693q10 0 18 -8t8 -19q0 -27 -26 -27h-674l-62 -520q125 94 285 94q201 0 340 -139
q137 -141 137 -339t-141 -335q-139 -141 -336 -141z" />
    <glyph glyph-name="six" unicode="6" horiz-adv-x="1314" 
d="M188 464q0 -171 121 -292t292 -121t291 121t124 293q-4 172 -124 292t-291 120t-292 -121t-121 -292zM131 547q0 336 139 577q168 295 498 310q27 0 27 -26t-23 -26q-295 -14 -457 -282q-102 -174 -127 -422q57 114 168 182t244 68q193 0 329 -135t136 -328t-136 -329
q-137 -136 -323 -136t-317 118t-150 294q-8 8 -8 135z" />
    <glyph glyph-name="seven" unicode="7" horiz-adv-x="1202" 
d="M158 1378q-27 0 -27 27q0 10 8 18t19 9h798q10 0 18 -10t9 -16q0 -7 -8 -20l-578 -1370q-4 -16 -22 -16h-4q-4 2 -6 2q-23 10 -15 35l563 1341h-755z" />
    <glyph glyph-name="eight" unicode="8" horiz-adv-x="1290" 
d="M336 1149q0 -96 68 -164q68 -67 164 -67q95 0 164 68t69 163q0 96 -68 164q-68 67 -164 67t-165 -67q-68 -68 -68 -164zM164 455q0 -168 119 -286t287 -118t286 118q119 118 119 286q0 169 -119 287t-287 118q-169 0 -287 -118t-118 -287zM285 1149q0 119 83 202
q82 83 200 83t201 -83t83 -202q0 -84 -45 -153t-117 -103q144 -41 240 -162t96 -293t-134 -304q-134 -134 -322 -134t-323 133q-134 133 -134 305t95 294q95 120 241 161q-74 35 -119 103t-45 153z" />
    <glyph glyph-name="nine" unicode="9" horiz-adv-x="1314" 
d="M186 970q0 -171 122 -292t293 -121t292 121t121 291q0 20 -2 30v11q-16 158 -133 266t-283 106q-166 0 -288 -120t-122 -292zM135 969q0 193 137 329q138 136 324 136t318 -123t149 -303q8 -51 8 -121q0 -334 -139 -578q-176 -295 -498 -309q-27 0 -26 27q-2 8 5 16t17 8
q295 14 455 283q104 182 127 420q-57 -113 -168 -181t-242 -67q-193 0 -330 135t-137 328z" />
    <glyph glyph-name="colon" unicode=":" horiz-adv-x="491" 
d="M178 115q0 29 20 48t48 19q29 0 48 -19t19 -48v-56q0 -29 -19 -48t-48 -19t-48 19t-20 48v56zM178 985q0 29 20 48t48 19q29 0 48 -18q19 -20 19 -49v-55q0 -29 -19 -48q-19 -20 -48 -20t-48 20t-20 48v55z" />
    <glyph glyph-name="semicolon" unicode=";" horiz-adv-x="491" 
d="M121 -184q0 16 16 26q104 57 96 158q-55 14 -55 72v43q0 29 20 48t48 19q29 0 48 -19t19 -48v-52q-1 -159 -61 -219t-96 -60t-35 32zM178 985q0 29 20 48t48 19q29 0 48 -18q19 -20 19 -49v-55q0 -29 -19 -48q-19 -20 -48 -20t-48 20t-20 48v55z" />
    <glyph glyph-name="semicolon" unicode="&#x37e;" horiz-adv-x="491" 
d="M121 -184q0 16 16 26q104 57 96 158q-55 14 -55 72v43q0 29 20 48t48 19q29 0 48 -19t19 -48v-52q-1 -159 -61 -219t-96 -60t-35 32zM178 985q0 29 20 48t48 19q29 0 48 -18q19 -20 19 -49v-55q0 -29 -19 -48q-19 -20 -48 -20t-48 20t-20 48v55z" />
    <glyph glyph-name="less" unicode="&#x3c;" horiz-adv-x="1269" 
d="M834 0q-14 0 -23 8l-676 682q-2 0 -10 9t4 32l682 690q23 23 45 0q14 -23 0 -45l-659 -663l659 -662q14 -20 0 -43q-8 -8 -22 -8z" />
    <glyph glyph-name="equal" unicode="=" horiz-adv-x="1269" 
d="M193 899q-31 0 -31 25q0 31 31 30h700q12 0 27 -15t0 -28q-15 -12 -27 -12h-700zM193 473q-31 0 -31 27q0 33 31 32h700q12 0 21 -10t10 -22q0 -27 -31 -27h-700z" />
    <glyph glyph-name="greater" unicode="&#x3e;" horiz-adv-x="1269" 
d="M913 735q0 -2 1 -2t8 -12v-16l-9 -13l-677 -684q-8 -8 -22 -8t-24 8q-14 23 0 43l658 662l-658 663q-14 23 0 45q23 23 46 0l673 -684h2z" />
    <glyph glyph-name="question" unicode="?" horiz-adv-x="1093" 
d="M434 25v47q0 25 25 24q8 0 16 -7t8 -17v-47q-1 -25 -25 -25t-24 25zM434 317v275q0 25 25 24q157 0 269 113t112 271t-112 272q-112 113 -269 112q-107 0 -195 -52t-139 -140q-14 -18 -35 -6t-6 31q56 100 156 158t219 59q176 0 304 -127t128 -303t-120 -302
q-120 -125 -288 -135v-250q0 -10 -8 -17t-16 -7q-25 -1 -25 24z" />
    <glyph glyph-name="at" unicode="@" horiz-adv-x="2007" 
d="M526 718q0 -132 88 -226t211 -94t212 94t89 226t-89 226t-212 94t-211 -94t-88 -226zM1126 371v155q-47 -84 -127 -133t-174 -49q-143 0 -247 111t-104 263t102 262q104 108 249 108t248 -109q102 -109 103 -262v-340q0 -31 22 -58t46 -27q25 0 34 7q70 12 131 98l10 19
q72 139 72 301q0 276 -195 471q-195 194 -470 194t-470 -194q-194 -194 -194 -470q0 -275 194 -470t469 -195q90 0 164 21q25 4 35 -19q4 -25 -20 -35q-92 -20 -179 -20q-297 0 -507 210q-209 210 -209 507t209 508q210 211 507 211t508 -210t211 -509q0 -205 -100 -362
q-14 -23 -58 -61t-96 -52l-39 -2q-66 0 -96 49q-29 35 -29 82z" />
    <glyph glyph-name="A" unicode="A" horiz-adv-x="1323" 
d="M659 1339l-337 -897h675zM1155 23l-137 366h-717l-137 -366q-4 -18 -23 -19h-4q-4 2 -6 2q-23 10 -12 35l516 1376q7 21 25 19t28 -19l516 -1376q10 -23 -14 -35q-2 0 -6 -2h-2q-17 1 -27 19z" />
    <glyph glyph-name="B" unicode="B" horiz-adv-x="1216" 
d="M264 799h303q121 0 206 85t85 205q0 119 -85 205t-206 88h-303v-583zM264 51h398q143 -1 243 101q101 102 101 245t-100 245t-244 101h-398v-692zM213 27v1380q0 27 27 27h327q143 0 245 -102t101 -242q0 -96 -48 -176t-130 -126q139 -27 232 -136q92 -110 92 -264
t-116 -272q-116 -116 -281 -116h-422q-27 0 -27 27z" />
    <glyph glyph-name="C" unicode="C" horiz-adv-x="1579" 
d="M150 728q0 300 218 513t525 213q260 0 465 -158q23 -18 4 -38t-35 -3q-188 145 -434 146q-285 0 -487 -197q-202 -196 -203 -476q0 -280 203 -478t487 -197q244 0 432 146q23 14 39 -3t-6 -38q-211 -158 -465 -158q-307 2 -525 215t-218 513z" />
    <glyph glyph-name="D" unicode="D" horiz-adv-x="1472" 
d="M264 51h250q276 4 470 198t194 469t-194 470t-470 194h-250v-1331zM213 27v1380q0 27 27 27h274q297 0 507 -210t210 -507t-210 -507t-507 -210h-274q-27 0 -27 27z" />
    <glyph glyph-name="E" unicode="E" horiz-adv-x="1214" 
d="M1001 0h-763q-25 0 -25 27v1380q0 23 25 27h763q25 0 25 -26t-25 -26h-737v-639h649q25 1 25 -25t-25 -26h-649v-641h737q25 1 25 -25t-25 -26z" />
    <glyph glyph-name="F" unicode="F" horiz-adv-x="1239" 
d="M213 27v1380q0 27 23 27h765q25 0 25 -26t-25 -26h-739v-639h651q25 1 25 -25t-25 -26h-651v-665q0 -27 -24 -27t-25 27z" />
    <glyph glyph-name="G" unicode="G" horiz-adv-x="1667" 
d="M1335 680h-440q-10 0 -24 14t0 26q14 13 24 13h469q25 0 25 -28v-521q0 -4 -3 -6v-4q-2 -10 -8 -14q-207 -160 -471 -160q-313 2 -535 218t-222 521t222 521t535 217q268 0 471 -160q23 -16 6 -41q-18 -23 -38 -2q-190 152 -439 151q-291 -1 -497 -201t-207 -484
q0 -284 206 -486t498 -201q238 0 428 142v485z" />
    <glyph glyph-name="H" unicode="H" horiz-adv-x="1452" 
d="M1079 27v665h-815v-665q0 -11 -7 -19t-17 -8q-27 0 -27 27v1380q0 27 27 27q10 0 17 -8t7 -19v-664h815v664q0 27 26 27t25 -27v-1380q0 -27 -26 -27t-25 27z" />
    <glyph glyph-name="I" unicode="I" horiz-adv-x="624" 
d="M227 27v1380q0 27 26 27t26 -27v-1380q0 -27 -26 -27t-26 27z" />
    <glyph glyph-name="J" unicode="J" horiz-adv-x="1216" 
d="M973 1407q0 27 22 27q27 0 27 -27v-928q0 -199 -139 -339t-338 -140q-158 0 -282 94t-171 238q-10 21 14 33q25 6 35 -17q41 -131 153 -214t251 -83q176 4 301 128t127 300v928z" />
    <glyph glyph-name="K" unicode="K" horiz-adv-x="1464" 
d="M213 27v1378q0 27 27 27q10 0 18 -10t8 -17v-922l940 940q20 16 38 -1t-1 -36l-586 -585l588 -756q16 -23 3 -34t-20 -11t-22 10l-585 754l-355 -356v-381q0 -11 -8 -19t-18 -8q-27 0 -27 27z" />
    <glyph glyph-name="L" unicode="L" horiz-adv-x="1153" 
d="M1004 0h-764q-27 0 -27 27v1380q0 27 26 27t25 -27v-1356h740q27 0 26 -24q1 -27 -26 -27z" />
    <glyph glyph-name="M" unicode="M" horiz-adv-x="1728" 
d="M1360 27v1302l-522 -727q-10 -10 -23 -10h-4q-16 0 -23 10l-524 729v-1304q0 -27 -26 -27t-25 27v1378q0 10 12 22t21 3q6 0 18 -9l549 -762l549 762q11 11 22 11q27 0 27 -27v-1378q0 -27 -27 -27q-10 0 -17 8t-7 19z" />
    <glyph glyph-name="N" unicode="N" horiz-adv-x="1579" 
d="M264 27q0 -27 -24 -27q-10 0 -19 8q-8 8 -8 19v1376q0 12 10 22q23 12 37 -4l946 -1315v1291q0 10 8 18t19 8q25 0 24 -26v-1370q0 -27 -24 -27q-18 0 -25 16q-2 0 -2 2l-942 1309v-1300z" />
    <glyph glyph-name="O" unicode="O" horiz-adv-x="1740" 
d="M848 1401q-264 -1 -454 -201t-189 -484q0 -284 188 -484t455 -203q264 3 452 203t191 483q-3 285 -191 485t-452 201zM847 1454q289 0 493 -216t208 -523q-4 -309 -207 -525t-493 -217q-290 0 -494 216q-202 217 -202 525t202 524q203 216 493 216z" />
    <glyph glyph-name="P" unicode="P" horiz-adv-x="1193" 
d="M264 690h395q143 0 245 100t102 244t-102 246t-245 102h-395v-692zM213 27v1380q0 27 27 27h419q164 0 282 -117t118 -283t-117 -282t-283 -115h-395v-610q0 -27 -26 -27t-25 27z" />
    <glyph glyph-name="Q" unicode="Q" horiz-adv-x="1728" 
d="M1456 728q0 280 -186 476t-448 195t-446 -197q-186 -196 -186 -476t186 -476t446 -197q261 0 448 197q186 198 186 478zM1333 -303q-162 0 -358 117q-83 51 -189 51t-215 -51q-25 -12 -37 12t11 39l293 137h-19q-281 0 -481 212t-201 512q0 300 201 514q202 214 484 214
t484 -214t201 -515q-1 -221 -119 -404t-309 -268l-293 -137q121 0 213 -57q187 -111 333 -111t284 111q21 16 37 -3t-4 -40q-154 -119 -316 -119z" />
    <glyph glyph-name="R" unicode="R" horiz-adv-x="1280" 
d="M236 690h399q141 2 241 102t101 242q0 144 -101 246t-245 102h-395v-692zM1004 309q0 -237 67 -231q25 2 29 -23q2 -18 -8 -25t-27 -7q-45 0 -74 55q-39 66 -39 231q0 129 -110 228t-355 100h-251v-610q0 -27 -26 -27t-26 27v1380q0 27 27 27h420q163 0 281 -117
t118 -267t-80 -256q-80 -105 -207 -141q37 -14 74 -37q186 -106 187 -307z" />
    <glyph glyph-name="S" unicode="S" horiz-adv-x="1366" 
d="M668 -10q-160 0 -294 62t-183 99q-48 37 -62 51t4 33q17 17 35 1t68 -54t179 -89q128 -52 253 -52q207 0 349 102t142 252q0 118 -67 176q-37 33 -82 63t-135 52q-91 22 -169 40t-176 47q-99 28 -145 59q-45 32 -85 68q-73 66 -74 203q-1 138 129 238q130 101 302 101
t278 -55q107 -55 137 -84t40 -41t-8 -31q-23 -14 -37 2q-156 156 -397 156q-162 0 -277 -84t-114 -203q0 -177 190 -251q85 -34 209 -63q306 -71 381 -121q109 -76 134 -154q17 -52 17 -118q0 -169 -156 -287t-386 -118z" />
    <glyph glyph-name="T" unicode="T" horiz-adv-x="1327" 
d="M602 27v1355h-473q-27 0 -27 26t27 26h997q27 0 27 -26t-27 -26h-471v-1355q0 -11 -8 -19t-18 -8q-27 0 -27 27z" />
    <glyph glyph-name="U" unicode="U" horiz-adv-x="1667" 
d="M215 575v832q0 27 26 27t25 -27v-832q0 -217 153 -369t369 -155q215 4 368 156t155 368v832q0 27 26 27q11 0 19 -8t8 -19v-832q0 -239 -169 -407t-407 -168t-406 168t-167 407z" />
    <glyph glyph-name="V" unicode="V" horiz-adv-x="1536" 
d="M725 0h-6l-4 2q-6 0 -15 14l-579 1379q-12 25 12 32q23 10 37 -12l555 -1321l557 1321q8 25 33 12q23 -6 14 -32l-579 -1379l-2 -2q-2 -10 -13 -12h-2q-2 -2 -8 -2z" />
    <glyph glyph-name="W" unicode="W" horiz-adv-x="2256" 
d="M736 0q-16 0 -25 16l-580 1379q-13 22 12 32q23 12 35 -12l555 -1323l402 952q6 18 25 20t30 -20l399 -952l557 1323q14 20 35 12q27 -8 14 -32l-579 -1379q-8 -16 -26 -16t-25 18l-402 961l-405 -963q-6 -16 -22 -16z" />
    <glyph glyph-name="X" unicode="X" horiz-adv-x="1478" 
d="M1186 0q-6 0 -23 10l-483 662l-481 -662q-15 -10 -21 -10t-16 6q-18 16 -4 35l491 674l-491 676q-16 20 4 35t37 -5l481 -661l483 661q14 18 37 4q18 -14 6 -34l-493 -676l493 -674q10 -18 -6 -35q-8 -6 -14 -6z" />
    <glyph glyph-name="Y" unicode="Y" horiz-adv-x="1236" 
d="M623 27v673l-502 691q-20 20 6 34q18 16 35 -4l487 -669l486 669q19 18 39 3t6 -33l-506 -691v-673q0 -27 -26 -27t-25 27z" />
    <glyph glyph-name="Z" unicode="Z" horiz-adv-x="1366" 
d="M172 1378q-27 0 -27 27t27 27h1006q27 0 26 -27v-6l-983 -1348h957q27 0 26 -24q0 -27 -26 -27h-1006q-27 0 -27 27q0 14 11 20l968 1331h-952z" />
    <glyph glyph-name="bracketleft" unicode="[" horiz-adv-x="880" 
d="M201 -213v1593q0 20 16 36t37 18h475q37 0 37 -29q0 -20 -37 -21h-477v-1601h477q37 0 37 -25t-37 -24h-475q-20 0 -37 16q-16 17 -16 37z" />
    <glyph glyph-name="backslash" unicode="\" horiz-adv-x="917" 
d="M730 2q-13 0 -17 16l-584 1379q-8 25 16 33q9 4 19 0t14 -15l580 -1376q10 -25 -13 -35q-2 -2 -15 -2z" />
    <glyph glyph-name="bracketright" unicode="]" horiz-adv-x="880" 
d="M678 1380v-1593q0 -21 -15 -37t-38 -16h-475q-37 0 -37 22q0 27 37 27h477v1601h-477q-37 0 -37 21q0 29 37 29h475q23 0 38 -17t15 -37z" />
    <glyph glyph-name="asciicircum" unicode="^" horiz-adv-x="1024" 
d="M190 354q-16 2 -20 27t8 33l367 280q27 20 45 20t45 -20l364 -280q19 -12 19 -36q1 -41 -36 -30q-13 4 -26 14l-364 289l-369 -289q-13 -10 -33 -8z" />
    <glyph glyph-name="underscore" unicode="_" horiz-adv-x="1228" 
d="M-4 -328q-45 0 -45 35t45 35h684q45 0 45 -35t-45 -35h-684z" />
    <glyph glyph-name="grave" unicode="`" horiz-adv-x="1024" 
d="M384 1481q26 0 50 -37l127 -191q8 -12 8 -24q1 -12 -23 -2t-40 28l-146 158q-27 27 -20 37q0 17 9 24t35 7z" />
    <glyph glyph-name="a" unicode="a" horiz-adv-x="1267" 
d="M555 51q174 0 298 132q124 133 124 319t-124 317t-298 131t-298 -131t-124 -317t124 -318t298 -133zM977 977q0 27 26 27t25 -27v-950q0 -27 -26 -27t-25 27v249q-59 -124 -173 -200t-249 -76q-197 0 -335 147t-138 355t138 354q138 147 335 148q135 0 249 -76t173 -201
v250z" />
    <glyph glyph-name="b" unicode="b" horiz-adv-x="1351" 
d="M242 504q0 -186 127 -320t306 -133q179 0 307 133q128 134 128 320t-128 317t-304 131t-303 -126t-133 -304v-18zM190 27v1376q0 31 27 31q8 0 16 -10t9 -21v-676q61 125 177 201t255 76q203 0 345 -146t142 -354t-142 -356t-345 -148q-139 0 -255 76t-177 198v-247
q0 -11 -8 -19t-17 -8q-27 0 -27 27z" />
    <glyph glyph-name="c" unicode="c" horiz-adv-x="1169" 
d="M119 502q0 207 151 354q152 148 350 148t334 -109q16 -16 2 -39q-12 -16 -34 -2q-126 98 -304 98t-313 -132t-135 -318t135 -318t330 -133q156 0 287 101q20 12 34 -8t-2 -35q-141 -109 -319 -109q-213 2 -365 148q-151 147 -151 354z" />
    <glyph glyph-name="d" unicode="d" horiz-adv-x="1351" 
d="M1042 504v18q-6 178 -133 304t-303 126t-304 -131t-128 -317t128 -320t307 -133q179 -1 306 133t127 320zM1094 27q0 -27 -25 -27t-27 27v247q-61 -122 -177 -198t-255 -76q-203 0 -345 148t-142 356t142 353q142 146 345 147q139 0 255 -76t177 -201v676q0 10 8 20
t17 11q27 0 27 -31v-1376z" />
    <glyph glyph-name="e" unicode="e" horiz-adv-x="1247" 
d="M605 950q-165 0 -289 -112t-144 -281h864q-20 169 -143 281t-288 112zM170 508v-6q0 -184 128 -316t308 -135q113 0 208 55t153 150q12 16 37 6q20 -12 6 -35q-66 -103 -174 -165t-230 -62q-201 2 -342 148t-145 354q4 209 145 355q140 147 336 147t334 -134t153 -329v-9
q-4 -25 -24 -24h-893z" />
    <glyph glyph-name="f" unicode="f" horiz-adv-x="741" 
d="M573 1436q27 0 27 -26t-27 -26q-106 0 -151 -50t-45 -187v-135h172q25 0 25 -27t-25 -27h-172v-929q0 -27 -27 -27t-26 27v929h-164q-27 0 -27 27t27 27h164v135q0 153 60 221t189 68z" />
    <glyph glyph-name="g" unicode="g" horiz-adv-x="1351" 
d="M1018 502q0 186 -124 318t-298 132t-298 -132t-124 -318t124 -318t298 -131q174 -1 298 131t124 318zM1042 1004q27 0 27 -27v-920q0 -197 -138 -336t-335 -139q-104 0 -209 49q-20 13 -10 33t35 14q90 -45 184 -45q176 4 299 127t123 297v219q-57 -124 -172 -200
t-250 -76q-197 0 -335 147t-138 355t138 354q138 147 335 148q135 0 250 -76t172 -199v248q0 11 7 19t17 8z" />
    <glyph glyph-name="h" unicode="h" 
d="M217 0q-24 0 -27 23v1384q0 27 26 27t26 -27v-614q53 96 148 153t208 58q168 0 287 -119t119 -289v-569q0 -11 -8 -19t-17 -8q-27 0 -27 27v569q0 146 -103 250t-249 104t-248 -99q-104 -99 -110 -241v-583q0 -16 -11 -23q-8 -4 -10 -4h-4z" />
    <glyph glyph-name="i" unicode="i" horiz-adv-x="575" 
d="M244 1251q0 -25 -26 -25t-25 25v49q-1 27 25 27t26 -27v-49zM244 27q0 -27 -26 -27t-25 27v952q-1 25 25 25t26 -25v-952z" />
    <glyph glyph-name="j" unicode="j" horiz-adv-x="509" 
d="M123 1255v50q0 27 27 26q10 0 19 -8t9 -18v-50q0 -10 -9 -17t-19 -7q-27 -1 -27 24zM14 -416q-24 0 -24 26t34 26t64 30q31 31 31 76v1237q0 25 24 25q9 0 19 -8t10 -17v-1237q0 -66 -46 -112t-112 -46z" />
    <glyph glyph-name="k" unicode="k" horiz-adv-x="1146" 
d="M190 27v1380q0 27 25 27t27 -27v-1063l659 660q16 16 37 0q18 -18 0 -37l-416 -416l416 -506q14 -21 2 -33t-23 -12t-18 10l-416 502l-235 -236q-4 -4 -6 -4v-245q0 -11 -8 -19t-17 -8q-27 0 -27 27z" />
    <glyph glyph-name="l" unicode="l" horiz-adv-x="509" 
d="M205 27v1380q-1 27 25 27t26 -27v-1380q0 -27 -26 -27t-25 27z" />
    <glyph glyph-name="m" unicode="m" horiz-adv-x="1947" 
d="M971 0q-25 0 -25 27v571q0 146 -103 250t-247 104t-246 -99t-106 -241v-585l-6 -19h-2q-12 -8 -17 -8h-6q-23 4 -23 27v571q0 16 5 49v330q1 27 25 27t24 -27v-182q53 96 146 152q93 57 212 57t222 -73t147 -190q43 117 146 190t233 73q166 0 282 -119t117 -287v-571
q0 -27 -25 -27q-10 0 -18 8t-8 19v571q0 146 -102 250t-246 104t-246 -99t-107 -241v-585q0 -6 -2 -9v-2q-8 -16 -24 -16z" />
    <glyph glyph-name="n" unicode="n" 
d="M242 27q0 -27 -25 -27h-8q-4 4 -6 4q-10 0 -13 19v956q0 25 26 25t26 -25v-184q53 94 147 151t207 58q166 0 285 -119t118 -287v-571q1 -27 -25 -27t-26 27v571q0 146 -103 250t-249 104t-250 -103t-104 -251v-571z" />
    <glyph glyph-name="o" unicode="o" horiz-adv-x="1280" 
d="M195 502q0 -186 123 -319q124 -132 298 -132t299 132q125 133 125 319t-125 318t-299 132t-298 -132t-123 -318zM143 502q1 207 139 354q138 148 334 148t336 -148t140 -354t-140 -354t-336 -148q-197 0 -335 148t-138 354z" />
    <glyph glyph-name="p" unicode="p" horiz-adv-x="1351" 
d="M242 508q0 -184 126 -314t302 -130t303 130t127 313t-127 314t-300 131t-299 -125t-132 -301v-18zM190 -412v1389q0 27 26 27t26 -27v-248q59 125 175 200t253 75q203 0 343 -144t140 -352q0 -207 -140 -352t-343 -146q-137 0 -253 75t-175 198v-695q0 -27 -25 -26
q-27 -1 -27 26z" />
    <glyph glyph-name="q" unicode="q" horiz-adv-x="1351" 
d="M1034 508v18q-6 176 -132 301t-299 125t-300 -131t-127 -314t127 -313t303 -130t302 130t126 314zM1085 -412q0 -27 -26 -26q-25 0 -25 26v695q-59 -123 -175 -198t-253 -75q-203 0 -343 146t-140 352q0 207 140 351t343 145q137 0 253 -75t175 -200v248q0 27 26 27
t25 -27v-1389z" />
    <glyph glyph-name="r" unicode="r" horiz-adv-x="899" 
d="M193 977q0 25 24 27q25 0 25 -27v-340q29 68 63 119q166 248 400 248q27 0 27 -27t-27 -27q-277 0 -439 -385l-24 -69v-469q0 -27 -24 -27t-25 27v469q-2 4 0 12v469z" />
    <glyph glyph-name="s" unicode="s" horiz-adv-x="1007" 
d="M514 0q-94 0 -208 45t-169 100q-18 18 -2 37q21 18 35 4q55 -53 156 -94q102 -41 188 -41q137 0 235 70q97 70 97 158t-47 130t-114 64q-66 22 -140 38q-213 49 -277 105q-27 25 -49 68q-23 43 -22 96q0 100 93 172q94 72 204 72t204 -39t125 -84q16 -16 -2 -37
q-20 -18 -37 2q-104 104 -270 105q-108 1 -186 -55t-78 -136q0 -104 93 -149q71 -35 172 -59q102 -23 180 -45t119 -59q87 -79 86 -189q0 -111 -112 -195t-274 -84z" />
    <glyph glyph-name="t" unicode="t" horiz-adv-x="819" 
d="M500 1004q27 0 26 -27q0 -25 -26 -25h-164v-798q0 -43 31 -74t65 -31q34 1 35 -25q0 -26 -27 -26q-63 0 -109 46t-46 110v798h-172q-27 0 -27 26t27 26h172v401q-1 27 25 27t26 -27v-401h164z" />
    <glyph glyph-name="u" unicode="u" 
d="M170 406v571q0 27 27 27q10 0 17 -8t7 -19v-571q1 -146 103 -250t247 -104t249 102q104 104 104 252v571q0 10 8 18t18 9q27 0 27 -27v-571q0 -168 -119 -287t-286 -119q-166 0 -284 119t-118 287z" />
    <glyph glyph-name="v" unicode="v" horiz-adv-x="1191" 
d="M541 0h-9q-12 4 -18 16l-399 949q-11 20 13 31t34 -13l377 -891l376 891q8 27 31 14q27 -12 17 -32l-400 -947q0 -4 -7 -11t-15 -7z" />
    <glyph glyph-name="w" unicode="w" horiz-adv-x="1763" 
d="M1163 16q1 -16 -23 -16t-24 12q-2 0 -2 2v2l-270 643l-271 -643q-6 -14 -18 -16h-12q-2 0 -11 4q-10 6 -10 16l-397 945q-12 25 14 32q23 12 35 -12l375 -893l268 639q7 18 25 16t28 -16l269 -639l377 893q8 23 33 12t14 -32z" />
    <glyph glyph-name="x" unicode="x" horiz-adv-x="1167" 
d="M857 0q-13 0 -21 10l-322 447l-328 -447q-8 -10 -19 -10t-17 6q-20 12 -5 35l336 461l-336 459q-16 18 5 34q23 12 36 -6l328 -446l322 446q20 20 40 5t5 -33l-334 -459l334 -461q16 -23 -9 -35q-2 -6 -15 -6z" />
    <glyph glyph-name="y" unicode="y" horiz-adv-x="1204" 
d="M907 977v-920q0 -195 -137 -333t-334 -138q-106 0 -205 49q-25 10 -10 35q8 23 31 13q90 -45 184 -45q174 0 297 122t123 297v152q-49 -93 -142 -149t-204 -56q-168 0 -286 118t-118 284v571q0 27 27 27q9 0 17 -8t8 -19v-571q0 -146 103 -248t245 -102t244 98
q100 98 106 237v590q0 12 6 12q9 9 21 11h6q18 -13 18 -27z" />
    <glyph glyph-name="z" unicode="z" horiz-adv-x="1134" 
d="M850 51q27 1 27 -25t-27 -26h-694q-13 0 -25 12t4 29l664 909h-643q-25 0 -25 27t25 27h688q23 0 33 -23v-10l-3 -4q-2 -6 -10 -15l-659 -901h645z" />
    <glyph glyph-name="braceleft" unicode="{" horiz-adv-x="983" 
d="M420 127v162q0 131 -54 195t-204 65q-49 0 -49 39t49 39q150 1 204 65t54 195v162q0 172 84 267t327 144q43 8 43 -18q0 -18 -24 -27q-217 -57 -294 -139t-77 -240v-153q0 -129 -54 -197t-159 -98q111 -37 162 -102t51 -193v-154q0 -157 77 -239t294 -140q25 -8 24 -28
q0 -25 -43 -17q-243 49 -327 145t-84 267z" />
    <glyph glyph-name="bar" unicode="|" horiz-adv-x="585" 
d="M248 -225v1822q0 45 26 45q33 0 33 -45v-1822q0 -45 -33 -45q-26 0 -26 45z" />
    <glyph glyph-name="braceright" unicode="}" horiz-adv-x="983" 
d="M109 -268q0 20 24 28q217 58 294 140t77 239v154q0 129 51 193t162 102q-104 31 -159 98q-54 68 -54 197v153q0 158 -77 240t-294 139q-25 8 -24 27q0 27 43 18q244 -49 328 -144t83 -267v-162q0 -131 54 -196t204 -64q49 0 49 -39t-49 -39q-150 0 -204 -65t-54 -195
v-162q1 -171 -83 -267t-328 -145q-43 -8 -43 17z" />
    <glyph glyph-name="asciitilde" unicode="~" horiz-adv-x="942" 
d="M174 520q0 4 11 40t61 74t90 38q41 0 135 -39t129 -39q63 0 102 88q0 13 10 24t17 11q37 0 37 -35q0 -12 -4 -25q-45 -139 -162 -139q-37 0 -131 40t-131 40q-63 0 -98 -80q-12 -24 -39 -24t-27 26z" />
    <glyph glyph-name="exclamdown" unicode="&#xa1;" horiz-adv-x="516" 
d="M190 1407q0 27 26 27t26 -27v-49q0 -10 -8 -18t-17 -7q-27 0 -27 25v49zM190 1092q0 24 26 24t26 -24v-1065q0 -27 -26 -27t-26 27v1065z" />
    <glyph glyph-name="cent" unicode="&#xa2;" horiz-adv-x="1189" 
d="M641 950q-193 0 -328 -132t-135 -318q0 -109 49 -203t135 -156l398 793q-62 16 -119 16zM127 500q0 207 151 354t363 147q66 0 141 -20l41 80q9 23 26 18q30 -10 25 -35l-40 -79q63 -25 127 -72q16 -16 2 -39q-12 -16 -35 -2q-59 43 -117 66l-408 -803q109 -63 251 -63
t274 100q20 12 35 -7q14 -20 -2 -36q-141 -109 -320 -109q-137 0 -260 70l-39 -76q0 -16 -14 -16t-17 2q-25 8 -14 32l43 84q-98 70 -156 176q-57 106 -57 228z" />
    <glyph glyph-name="sterling" unicode="&#xa3;" horiz-adv-x="1318" 
d="M1042 659q0 -22 -18 -22h-653v-600l778 -2q45 -8 49 -25q0 -18 -11 -21t-38 -3h-987q-27 0 -27 12q0 18 25 20l159 19v600h-135q-43 0 -46 8t-3 14q0 29 49 29h135v262q1 238 127 364t314 126q248 0 409 -191q15 -19 15 -39t-9 -20l-28 2q-15 0 -31 24t-18 25
q-131 152 -338 152q-74 0 -150 -30t-122 -77t-82 -142q-35 -95 -35 -192v-264h622q49 0 49 -29z" />
    <glyph glyph-name="yen" unicode="&#xa5;" horiz-adv-x="1404" 
d="M621 27v335h-324q-31 0 -31 27q0 33 31 33h324v254h-324q-31 0 -31 24q0 31 31 31h301l-479 660q-20 20 6 34q18 16 35 -4l487 -669l486 669q19 18 39 3t6 -33l-484 -660h303q11 0 21 -9q10 -8 10 -20q0 -26 -31 -26h-325v-254h325q11 0 21 -10t10 -23q0 -27 -31 -27
h-325v-335q0 -27 -26 -27t-25 27z" />
    <glyph glyph-name="dieresis" unicode="&#xa8;" horiz-adv-x="1024" 
d="M645 1305q1 29 21 49t49 20t49 -20t20 -49t-20 -49t-49 -21q-29 1 -49 21t-21 49zM272 1305q0 29 20 49t50 20q29 0 48 -20q20 -20 20 -49t-20 -49t-48 -21q-30 1 -50 21t-20 49z" />
    <glyph glyph-name="copyright" unicode="&#xa9;" horiz-adv-x="1699" 
d="M852 340q-152 0 -260 113t-107 272v4q0 159 109 273t261 114t269 -102q18 -14 18 -34t-12 -34q-14 -12 -30 -12t-35 14q-100 86 -214 86t-195 -89t-81 -214v-4q0 -125 83 -215t201 -90t218 90q17 10 31 10t26 -12t13 -30q0 -18 -14 -29q-129 -111 -281 -111zM848 33
q290 -1 486 199t196 485v4q0 283 -195 481t-483 199q-288 0 -486 -200q-196 -200 -196 -484v-4q0 -283 194 -481t484 -199zM848 -25q-309 0 -524 216t-215 522v4q0 305 217 523t526 218t524 -216t215 -521v-4q0 -305 -217 -523t-526 -219z" />
    <glyph glyph-name="guillemotleft" unicode="&#xab;" horiz-adv-x="1054" 
 />
    <glyph glyph-name="registered" unicode="&#xae;" horiz-adv-x="851" 
d="M430 1087q47 0 80 33t33 79t-33 78t-80 32h-127v-222h127zM303 1069v-197q0 -10 -9 -10t-9 10v447q0 8 8 8h137q53 0 90 -38t37 -87t-26 -83t-66 -46q14 -4 24 -10q61 -35 61 -105t21 -71q6 0 11 -6q0 -11 -11 -11q-37 2 -39 95q0 45 -32 69q-18 20 -42 26t-30 9h-125z
M425 756q142 0 240 99q97 99 97 241v2q0 141 -96 239q-96 99 -238 99t-240 -100t-98 -240v-2q0 -141 96 -240q97 -98 239 -98zM782 1096q0 -147 -104 -253t-254 -106q-148 1 -251 105t-103 252v2q0 146 104 252t253 106t252 -104t103 -252v-2z" />
    <glyph glyph-name="degree" unicode="&#xb0;" horiz-adv-x="921" 
d="M457 883q111 0 185 78t75 182v4q0 104 -76 183q-77 79 -185 79t-184 -79t-75 -183v-4q1 -104 75 -182t185 -78zM458 844q-130 0 -218 88t-88 211v4q0 133 90 216t214 83t215 -87t91 -212v-4q0 -123 -87 -211t-217 -88z" />
    <glyph glyph-name="acute" unicode="&#xb4;" horiz-adv-x="1024" 
d="M412 1229q0 12 8 24l127 191q25 37 57 37t35 -20q2 -9 2 -11q6 -10 -20 -37l-146 -158q-15 -18 -39 -28t-24 2z" />
    <glyph glyph-name="cedilla" unicode="&#xb8;" horiz-adv-x="1024" 
d="M422 -291q-30 1 -52 17t-22 30t10 33l158 231h88l-133 -270q-20 -41 -49 -41z" />
    <glyph glyph-name="questiondown" unicode="&#xbf;" horiz-adv-x="1093" 
d="M514 1362q0 -23 -25 -24t-24 24v47q1 25 25 25t24 -25v-47zM465 1116q0 25 24 25q9 0 17 -7t8 -18v-250q168 -10 288 -135t120 -301t-127 -303t-306 -127q-119 0 -219 58t-155 159q-14 19 6 31t35 -6q51 -88 139 -140t194 -53q158 0 270 113q111 114 111 272t-112 271
q-113 113 -269 112q-25 0 -24 25v274z" />
    <glyph glyph-name="Agrave" unicode="&#xc0;" horiz-adv-x="1329" 
d="M562 1890q26 0 50 -37l127 -190q8 -12 9 -23q0 -14 -24 -4t-40 29l-145 158q-27 27 -21 37q0 17 9 24q9 6 35 6zM322 442h675l-338 897zM1155 23l-137 366h-717l-137 -366q-4 -18 -23 -19h-4q-4 2 -6 2q-23 10 -12 35l516 1376q7 21 25 19t28 -19l516 -1376
q10 -23 -14 -35q-2 0 -6 -2h-2q-17 1 -27 19z" />
    <glyph glyph-name="Aacute" unicode="&#xc1;" horiz-adv-x="1323" 
d="M590 1638q0 12 8 25l127 190q25 37 50 37t35 -6t9 -24q6 -10 -20 -37l-146 -158q-15 -19 -39 -29t-24 2zM659 1339l-337 -897h675zM1155 23l-137 366h-717l-137 -366q-4 -18 -23 -19h-4q-4 2 -6 2q-23 10 -12 35l516 1376q7 21 25 19t28 -19l516 -1376q10 -23 -14 -35
q-2 0 -6 -2h-2q-17 1 -27 19z" />
    <glyph glyph-name="Acircumflex" unicode="&#xc2;" horiz-adv-x="1359" 
d="M668 1884h16q27 0 57 -37l148 -180q10 -12 10 -25q0 -8 -10 -6q-9 2 -21 2t-51 39l-143 154l-142 -156q-37 -37 -51 -37l-28 4q0 12 10 25l147 180q31 37 58 37zM324 442h675l-337 897zM1157 23l-137 366h-717l-137 -366q-4 -18 -23 -19h-4q-4 2 -6 2q-23 10 -12 35
l516 1376q7 21 25 19t28 -19l516 -1376q10 -23 -14 -35q-2 0 -4 -2h-4q-17 1 -27 19z" />
    <glyph glyph-name="Atilde" unicode="&#xc3;" horiz-adv-x="1359" 
d="M530 1796q42 0 136 -39t129 -39q63 0 102 88q0 17 9 26t18 9q37 0 37 -35q0 -12 -5 -24q-45 -139 -161 -140q-37 0 -131 40t-132 40q-63 0 -98 -80q-12 -25 -33 -24q-33 0 -32 27q0 3 11 39t60 74t90 38zM324 442h675l-337 897zM1157 23l-137 366h-717l-137 -366
q-4 -18 -23 -19h-4q-4 2 -6 2q-23 10 -12 35l516 1376q7 21 25 19t28 -19l516 -1376q10 -23 -14 -35q-2 0 -4 -2h-4q-17 1 -27 19z" />
    <glyph glyph-name="Adieresis" unicode="&#xc4;" horiz-adv-x="1357" 
d="M778 1714q0 29 20 49q20 21 50 21q29 0 49 -20q21 -20 21 -50q0 -29 -20 -49t-50 -20t-50 20t-20 49zM406 1714q0 29 20 49q20 21 49 21t48 -20t19 -50q0 -29 -18 -49q-20 -20 -49 -20t-49 20t-20 49zM324 442h675l-337 897zM1157 23l-137 366h-717l-137 -366
q-4 -18 -23 -19h-4q-4 2 -6 2q-23 10 -12 35l516 1376q7 21 25 19t28 -19l516 -1376q10 -23 -14 -35q-2 0 -4 -2h-4q-17 1 -27 19z" />
    <glyph glyph-name="Aring" unicode="&#xc5;" horiz-adv-x="1323" 
d="M297 440h676l-338 897zM516 1513q0 -39 30 -77q30 -39 89 -39t87 40t28 76v3q0 44 -34 80t-83 36t-83 -36t-34 -80v-3zM467 1516v2q0 72 49 116t117 43q68 0 117 -46t49 -113v-2q0 -54 -32 -98t-83 -58l496 -1321q10 -23 -15 -35h-6l-2 -2q-16 0 -27 18l-137 367h-717
l-137 -367q-4 -18 -22 -18l-4 2h-7q-23 10 -12 35l494 1319q-53 14 -87 58t-34 100z" />
    <glyph glyph-name="AE" unicode="&#xc6;" horiz-adv-x="2140" 
d="M1026 477v901h-65l-541 -901h606zM956 1434h1018q49 0 49 -29t-49 -29h-887v-620h795q49 0 49 -33t-49 -33h-795v-631h898q49 1 49 -29t-49 -30h-906q-23 0 -38 16t-15 37v369h-641l-246 -406q-13 -22 -39 -18t-14 41q33 68 817 1362q20 33 53 33z" />
    <glyph glyph-name="Ccedilla" unicode="&#xc7;" horiz-adv-x="1579" 
d="M150 728q0 300 218 513t525 213q260 0 465 -158q23 -18 4 -38t-35 -3q-188 145 -434 146q-285 0 -487 -197q-202 -196 -203 -476q0 -280 203 -478t487 -197q244 0 432 146q23 14 39 -3t-6 -38q-199 -149 -436 -157l-123 -251q-19 -41 -49 -41q-30 1 -52 17t-22 30t10 33
l146 214q-268 21 -475 223t-207 502z" />
    <glyph glyph-name="Egrave" unicode="&#xc8;" horiz-adv-x="1214" 
d="M1001 0h-763q-25 0 -25 27v1380q0 23 25 27h763q25 0 25 -26t-25 -26h-737v-639h649q25 1 25 -25t-25 -26h-649v-641h737q25 1 25 -25t-25 -26zM499 1890q26 0 50 -37l127 -190q8 -13 8 -25t-24 -2t-39 29l-146 158q-27 27 -20 37q0 17 9 24q9 6 35 6z" />
    <glyph glyph-name="Eacute" unicode="&#xc9;" horiz-adv-x="1214" 
d="M514 1638q0 12 8 25l127 190q25 37 51 37t34 -6q9 -6 9 -24q6 -10 -20 -37l-145 -158q-16 -19 -40 -29t-24 2zM1001 0h-763q-25 0 -25 27v1380q0 23 25 27h763q25 0 25 -26t-25 -26h-737v-639h649q25 1 25 -25t-25 -26h-649v-641h737q25 1 25 -25t-25 -26z" />
    <glyph glyph-name="Ecircumflex" unicode="&#xca;" horiz-adv-x="1214" 
d="M1001 0h-763q-25 0 -25 27v1380q0 23 25 27h763q25 0 25 -26t-25 -26h-737v-639h649q25 1 25 -25t-25 -26h-649v-641h737q25 1 25 -25t-25 -26zM612 1884h17q27 0 57 -37l148 -180q10 -12 10 -25q0 -8 -10 -6t-22 2q-11 0 -50 39l-144 154l-141 -156q-37 -37 -51 -37
l-29 4q0 12 11 25l147 180q31 37 57 37z" />
    <glyph glyph-name="Edieresis" unicode="&#xcb;" horiz-adv-x="1372" 
d="M733 1714q1 29 21 49q20 21 49 21t49 -20t20 -50q0 -29 -20 -49t-49 -20t-49 20t-21 49zM360 1714q0 29 20 49q20 21 50 21q29 0 48 -20q20 -20 20 -50q0 -29 -20 -49t-48 -20q-30 0 -50 20t-20 49zM1001 0h-763q-25 0 -25 27v1380q0 23 25 27h763q25 0 25 -26t-25 -26
h-737v-639h649q25 1 25 -25t-25 -26h-649v-641h737q25 1 25 -25t-25 -26z" />
    <glyph glyph-name="Igrave" unicode="&#xcc;" horiz-adv-x="712" 
d="M354 1890q26 0 49 -37l127 -190q8 -12 9 -23q-1 -14 -25 -4t-39 29l-145 158q-27 27 -21 37q-1 17 9 24q10 6 36 6zM395 27v1380q0 27 26 27t25 -27v-1380q0 -27 -26 -27t-25 27z" />
    <glyph glyph-name="Iacute" unicode="&#xcd;" horiz-adv-x="561" 
d="M170 1638q0 12 8 25l127 190q25 37 50 37t35 -6t9 -24q6 -10 -20 -37l-146 -158q-15 -19 -39 -29t-24 2zM262 27v1380q0 27 26 27t25 -27v-1380q1 -27 -25 -27t-26 27z" />
    <glyph glyph-name="Icircumflex" unicode="&#xce;" horiz-adv-x="561" 
d="M217 1884h16q27 0 58 -37l147 -180q10 -12 11 -25q-11 -6 -27 -5t-55 40l-144 154l-141 -156q-37 -37 -51 -37l-29 4q0 12 10 25l148 180q31 37 57 37zM201 27v1380q-1 27 25 27t26 -27v-1380q0 -27 -26 -27t-25 27z" />
    <glyph glyph-name="Idieresis" unicode="&#xcf;" horiz-adv-x="561" 
d="M356 1714q0 29 20 49q20 21 50 21q29 0 49 -20q21 -20 21 -50q0 -29 -20 -49t-50 -20t-50 20t-20 49zM-16 1714q0 29 20 49q20 21 49 21t48 -20t19 -50q0 -29 -18 -49q-20 -20 -49 -20t-49 20t-20 49zM215 27v1380q0 27 26 27t25 -27v-1380q0 -27 -26 -27t-25 27z" />
    <glyph glyph-name="Eth" unicode="&#xd0;" horiz-adv-x="1662" 
d="M389 51h250q276 4 470 198t194 469t-194 470t-470 194h-250v-639h211q18 0 18 -20t-18 -21h-211v-651zM338 27v675h-205q-20 0 -20 21t20 20h205v664q0 27 27 27h274q297 0 507 -210t210 -507t-210 -507t-507 -210h-274q-27 0 -27 27z" />
    <glyph glyph-name="Ntilde" unicode="&#xd1;" horiz-adv-x="1617" 
d="M442 1645q0 4 9 28q14 47 63 85t91 38t136 -39t127 -39q63 0 103 88q0 17 9 26t17 9q37 0 37 -35q0 -12 -4 -24q-45 -139 -162 -140q-37 0 -131 40t-131 40q-63 0 -98 -80q-12 -25 -33 -24q-33 0 -33 27zM264 27q0 -27 -24 -27q-10 0 -19 8q-8 8 -8 19v1376q0 12 10 22
q23 12 37 -4l946 -1315v1291q0 10 8 18t19 8q25 0 24 -26v-1370q0 -27 -24 -27q-18 0 -25 16q-2 0 -2 2l-942 1309v-1300z" />
    <glyph glyph-name="Ograve" unicode="&#xd2;" horiz-adv-x="1740" 
d="M848 1401q-264 -1 -454 -201t-189 -484q0 -284 188 -484t455 -203q264 3 452 203t191 483q-3 285 -191 485t-452 201zM847 1454q289 0 493 -216t208 -523q-4 -309 -207 -525t-493 -217q-290 0 -494 216q-202 217 -202 525t202 524q203 216 493 216zM782 1890q26 0 49 -37
l127 -190q8 -12 9 -23q-1 -14 -25 -4t-39 29l-145 158q-27 27 -21 37q-1 17 9 24q10 6 36 6z" />
    <glyph glyph-name="Oacute" unicode="&#xd3;" horiz-adv-x="1740" 
d="M868 1853q25 37 56 37t35 -14t4 -16q6 -10 -21 -37l-145 -158q-15 -19 -39 -29t-25 4q0 10 8 23zM848 1401q-264 -1 -454 -201t-189 -484q0 -284 188 -484t455 -203q264 3 452 203t191 483q-3 285 -191 485t-452 201zM847 1454q289 0 493 -216t208 -523
q-4 -309 -207 -525t-493 -217q-290 0 -494 216q-202 217 -202 525t202 524q203 216 493 216z" />
    <glyph glyph-name="Ocircumflex" unicode="&#xd4;" horiz-adv-x="1740" 
d="M848 1401q-264 -1 -454 -201t-189 -484q0 -284 188 -484t455 -203q264 3 452 203t191 483q-3 285 -191 485t-452 201zM847 1454q289 0 493 -216t208 -523q-4 -309 -207 -525t-493 -217q-290 0 -494 216q-202 217 -202 525t202 524q203 216 493 216zM842 1884h16
q27 0 57 -37l148 -180q10 -12 10 -25q0 -8 -10 -6t-21 2t-51 39l-143 154l-141 -156q-37 -37 -52 -37l-28 4q0 12 10 25l147 180q31 37 58 37z" />
    <glyph glyph-name="Otilde" unicode="&#xd5;" horiz-adv-x="1740" 
d="M555 1645q0 3 11 39q10 36 60 74t91 38t135 -39t129 -39q63 0 102 88q-1 18 9 27q10 8 18 8q37 0 37 -35q0 -12 -4 -24q-45 -139 -162 -140q-37 0 -131 40t-131 40q-63 0 -98 -80q-12 -25 -33 -24q-33 0 -33 27zM848 1401q-264 -1 -454 -201t-189 -484q0 -284 188 -484
t455 -203q264 3 452 203t191 483q-3 285 -191 485t-452 201zM847 1454q289 0 493 -216t208 -523q-4 -309 -207 -525t-493 -217q-290 0 -494 216q-202 217 -202 525t202 524q203 216 493 216z" />
    <glyph glyph-name="Odieresis" unicode="&#xd6;" horiz-adv-x="1740" 
d="M965 1714q0 29 20 49q20 21 49 21t49 -20q21 -20 21 -50q0 -29 -20 -49t-50 -20q-29 0 -49 20t-20 49zM592 1714q0 29 20 49q20 21 50 21t48 -20q19 -20 19 -50q0 -29 -19 -49t-48 -20t-50 20q-20 20 -20 49zM848 1401q-264 -1 -454 -201t-189 -484q0 -284 188 -484
t455 -203q264 3 452 203t191 483q-3 285 -191 485t-452 201zM847 1454q289 0 493 -216t208 -523q-4 -309 -207 -525t-493 -217q-290 0 -494 216q-202 217 -202 525t202 524q203 216 493 216z" />
    <glyph glyph-name="multiply" unicode="&#xd7;" horiz-adv-x="1269" 
d="M1065 342q0 -23 -14 -37t-37 -14t-41 18l-340 344l-342 -346q-17 -16 -37 -16t-35 14q-14 15 -14 35t16 37l346 342l-344 340q-18 18 -18 41t14 37t37 14t41 -18l340 -345l342 347q17 16 37 16t34 -14t15 -35q0 -21 -16 -37l-347 -342l345 -340q18 -18 18 -41z" />
    <glyph glyph-name="Oslash" unicode="&#xd8;" horiz-adv-x="1740" 
d="M846 1454q290 0 493 -215l105 109q16 21 36 3q21 -17 5 -38l-110 -114q170 -204 173 -484q-4 -309 -207 -525t-486 -217q-283 0 -479 194l-134 -138q-10 -12 -22 -9t-13 9q-18 14 0 37l134 138q-189 212 -189 515t202 519t492 216zM416 209q181 -177 432 -180
q264 3 452 203t191 483q-2 256 -155 444zM848 1401q-264 0 -454 -201q-190 -202 -189 -480q0 -278 176 -474l920 954h-1q-188 201 -452 201z" />
    <glyph glyph-name="Ugrave" unicode="&#xd9;" horiz-adv-x="1556" 
d="M585 1890q26 0 50 -37l127 -190q8 -13 8 -25t-24 -2t-39 29l-146 158q-27 27 -20 37q0 17 9 24q9 6 35 6zM190 575v832q0 27 26 27t26 -27v-832q0 -217 152 -369t370 -155q215 4 368 156t154 368v832q0 27 27 27q10 0 18 -8t8 -19v-832q0 -239 -169 -407
q-168 -168 -406 -168t-406 168t-168 407z" />
    <glyph glyph-name="Uacute" unicode="&#xda;" horiz-adv-x="1556" 
d="M748 1853q25 37 55 37t35 -14q4 -14 4 -16q6 -10 -21 -37l-145 -158q-16 -19 -40 -29t-24 4q0 10 9 23zM190 575v832q0 27 26 27t26 -27v-832q0 -217 152 -369t370 -155q215 4 368 156t154 368v832q0 27 27 27q10 0 18 -8t8 -19v-832q0 -239 -169 -407
q-168 -168 -406 -168t-406 168t-168 407z" />
    <glyph glyph-name="Ucircumflex" unicode="&#xdb;" horiz-adv-x="1556" 
d="M686 1884h16q27 0 58 -37l147 -180q10 -12 11 -25q0 -8 -10 -6t-22 2q-11 0 -50 39l-144 154l-141 -156q-37 -37 -51 -37l-29 4q0 12 10 25l148 180q31 37 57 37zM190 575v832q0 27 26 27t26 -27v-832q0 -217 152 -369t370 -155q215 4 368 156t154 368v832q0 27 27 27
q10 0 18 -8t8 -19v-832q0 -239 -169 -407q-168 -168 -406 -168t-406 168t-168 407z" />
    <glyph glyph-name="Udieresis" unicode="&#xdc;" horiz-adv-x="1556" 
d="M881 1714q0 29 20 49q20 21 49 21t49 -20q21 -20 21 -50q0 -29 -20 -49t-50 -20q-29 0 -49 20t-20 49zM508 1714q0 29 20 49q20 21 50 21t48 -20q19 -20 19 -50q0 -29 -19 -49t-48 -20t-50 20q-20 20 -20 49zM190 575v832q0 27 26 27t26 -27v-832q0 -217 152 -369
t370 -155q215 4 368 156t154 368v832q0 27 27 27q10 0 18 -8t8 -19v-832q0 -239 -169 -407q-168 -168 -406 -168t-406 168t-168 407z" />
    <glyph glyph-name="Yacute" unicode="&#xdd;" horiz-adv-x="1466" 
d="M578 1638q0 12 8 25l127 190q25 37 50 37t35 -6t9 -24q6 -10 -21 -37l-145 -158q-15 -19 -39 -29t-24 2zM623 27v673l-502 691q-20 20 6 34q18 16 35 -4l487 -669l486 669q19 18 39 3t6 -33l-506 -691v-673q0 -27 -26 -27t-25 27z" />
    <glyph glyph-name="germandbls" unicode="&#xdf;" horiz-adv-x="1269" 
d="M219 -8q-26 0 -26 28v1004q0 217 124 354q125 137 317 131t304 -106q113 -100 113 -252v-4q1 -137 -105 -237t-250 -152q186 -33 318 -125t129 -254t-147 -268t-367 -115q-43 0 -43 33q0 39 41 43q188 10 315 92t127 217t-124 212t-308 101q-51 6 -51 49q0 37 41 52
q358 125 358 356q0 117 -104 208t-248 91q-143 0 -259 -125t-116 -301v-983q0 -49 -39 -49z" />
    <glyph glyph-name="agrave" unicode="&#xe0;" horiz-adv-x="1175" 
d="M721 1179q1 -11 -23 -2t-41 27l-145 158q-27 27 -20 37q0 29 34 30t60 -36l127 -191q8 -12 8 -23zM602 51q174 0 298 132q124 133 124 319t-124 317t-298 131t-298 -131t-124 -317t124 -318t298 -133zM1024 977q0 27 26 27t25 -27v-950q1 -27 -25 -27t-26 27v249
q-59 -124 -173 -200t-249 -76q-197 0 -335 147t-138 355t138 354q138 147 335 148q135 0 249 -76t173 -201v250z" />
    <glyph glyph-name="aacute" unicode="&#xe1;" horiz-adv-x="1175" 
d="M623 1393q25 37 59 37t35 -31q6 -10 -21 -37l-145 -158q-15 -18 -39 -27t-25 3q0 10 9 22zM602 51q174 0 298 132q124 133 124 319t-124 317t-298 131t-298 -131t-124 -317t124 -318t298 -133zM1024 977q0 27 26 27t25 -27v-950q1 -27 -25 -27t-26 27v249
q-59 -124 -173 -200t-249 -76q-197 0 -335 147t-138 355t138 354q138 147 335 148q135 0 249 -76t173 -201v250z" />
    <glyph glyph-name="acircumflex" unicode="&#xe2;" horiz-adv-x="1175" 
d="M651 1419h17q27 0 57 -37l147 -180q10 -12 11 -24q1 -8 -21 -6t-61 40l-144 154l-141 -156q-37 -37 -51 -36l-29 4q0 12 10 24l148 180q31 37 57 37zM602 51q174 0 298 132q124 133 124 319t-124 317t-298 131t-298 -131t-124 -317t124 -318t298 -133zM1024 977
q0 27 26 27t25 -27v-950q1 -27 -25 -27t-26 27v249q-59 -124 -173 -200t-249 -76q-197 0 -335 147t-138 355t138 354q138 147 335 148q135 0 249 -76t173 -201v250z" />
    <glyph glyph-name="atilde" unicode="&#xe3;" horiz-adv-x="1175" 
d="M342 1167q-33 0 -33 27q0 4 11 40q10 36 60 74t91 38t135 -39t129 -39q63 0 103 88q0 16 9 25t17 10q37 0 37 -35q0 -12 -4 -25q-45 -139 -162 -139q-37 0 -131 40t-131 40q-63 0 -98 -80q-12 -25 -33 -25zM602 51q174 0 298 132q124 133 124 319t-124 317t-298 131
t-298 -131t-124 -317t124 -318t298 -133zM1024 977q0 27 26 27t25 -27v-950q1 -27 -25 -27t-26 27v249q-59 -124 -173 -200t-249 -76q-197 0 -335 147t-138 355t138 354q138 147 335 148q135 0 249 -76t173 -201v250z" />
    <glyph glyph-name="adieresis" unicode="&#xe4;" horiz-adv-x="1175" 
d="M719 1255q0 29 20 49t49 21q30 0 50 -20q20 -19 20 -49t-20 -50t-50 -20t-49 20q-20 20 -20 49zM346 1255q0 29 20 49t50 21q29 0 48 -20q19 -19 19 -49t-19 -50t-48 -20q-30 0 -50 20t-20 49zM602 51q174 0 298 132q124 133 124 319t-124 317t-298 131t-298 -131
t-124 -317t124 -318t298 -133zM1024 977q0 27 26 27t25 -27v-950q1 -27 -25 -27t-26 27v249q-59 -124 -173 -200t-249 -76q-197 0 -335 147t-138 355t138 354q138 147 335 148q135 0 249 -76t173 -201v250z" />
    <glyph glyph-name="aring" unicode="&#xe5;" horiz-adv-x="1175" 
d="M578 51q174 0 298 132q124 133 124 319t-124 317t-298 131t-298 -131t-124 -317t124 -318t298 -133zM999 977q0 27 26 27t26 -27v-950q0 -27 -26 -27t-26 27v249q-59 -124 -173 -200t-248 -76q-197 0 -335 147q-139 147 -139 355t138 354q138 147 336 148q134 0 248 -76
t173 -201v250zM580 1212q49 0 83 36t33 81v2q0 45 -33 81q-34 36 -83 36t-83 -36t-34 -81v-2q0 -45 34 -81t83 -36zM745 1331q-1 -68 -47 -116t-117 -48t-119 48t-48 116v2q0 72 49 116t117 44t116 -46t49 -114v-2z" />
    <glyph glyph-name="ae" unicode="&#xe6;" horiz-adv-x="1953" 
d="M1067 555h862q-20 168 -143 281q-123 112 -288 112t-288 -112t-143 -281zM156 502q0 -186 124 -318t299 -133q175 0 299 132q124 133 124 319t-124 318t-299 132t-299 -132t-124 -318zM1065 506v-6q0 -182 127 -314t307 -135q113 0 208 55t153 150q12 16 36 6
q20 -12 7 -35q-65 -103 -173 -165t-243 -61t-256 87t-178 221v-282q0 -27 -26 -27t-26 27v249q-59 -124 -173 -200t-250 -76q-197 0 -335 147q-139 147 -139 355t138 355q138 148 336 149q136 0 250 -76t173 -201v250q0 27 26 27t26 -27v-287q55 139 175 224t271 85
q191 0 329 -133t152 -329v-9q-4 -25 -24 -24h-891z" />
    <glyph glyph-name="ccedilla" unicode="&#xe7;" horiz-adv-x="1169" 
d="M119 502q0 207 151 354q152 148 350 148t334 -109q16 -16 2 -39q-12 -16 -34 -2q-126 98 -304 98t-313 -132t-135 -318t135 -318t330 -133q156 0 287 101q20 12 34 -8t-2 -35q-124 -95 -275 -107l-124 -252q-20 -41 -49 -41q-30 1 -52 17t-22 30t10 33l146 213
q-183 16 -326 154t-143 346z" />
    <glyph glyph-name="egrave" unicode="&#xe8;" horiz-adv-x="1247" 
d="M605 950q-165 0 -289 -112t-144 -281h864q-20 169 -143 281t-288 112zM170 508v-6q0 -184 128 -316t308 -135q113 0 208 55t153 150q12 16 37 6q20 -12 6 -35q-66 -103 -174 -165t-230 -62q-201 2 -342 148t-145 354q4 209 145 355q140 147 336 147t334 -134t153 -329v-9
q-4 -25 -24 -24h-893zM721 1178q1 -12 -23 -2t-41 28l-145 158q-27 27 -20 37q0 29 34 30t60 -36l127 -191q8 -12 8 -24z" />
    <glyph glyph-name="eacute" unicode="&#xe9;" horiz-adv-x="1247" 
d="M621 1393q25 37 55 37t35 -14q4 -14 4 -17q6 -10 -21 -37l-145 -158q-15 -18 -39 -27t-25 3q0 10 9 22zM605 950q-165 0 -289 -112t-144 -281h864q-20 169 -143 281t-288 112zM170 508v-6q0 -184 128 -316t308 -135q113 0 208 55t153 150q12 16 37 6q20 -12 6 -35
q-66 -103 -174 -165t-230 -62q-201 2 -342 148t-145 354q4 209 145 355q140 147 336 147t334 -134t153 -329v-9q-4 -25 -24 -24h-893z" />
    <glyph glyph-name="ecircumflex" unicode="&#xea;" horiz-adv-x="1247" 
d="M605 950q-165 0 -289 -112t-144 -281h864q-20 169 -143 281t-288 112zM170 508v-6q0 -184 128 -316t308 -135q113 0 208 55t153 150q12 16 37 6q20 -12 6 -35q-66 -103 -174 -165t-230 -62q-201 2 -342 148t-145 354q4 209 145 355q140 147 336 147t334 -134t153 -329v-9
q-4 -25 -24 -24h-893zM596 1419h16q27 0 58 -37l147 -180q10 -12 10 -22t-10 -8t-21 2t-51 38l-143 154l-141 -156q-37 -37 -51 -36l-29 4q0 12 10 24l148 180q31 37 57 37z" />
    <glyph glyph-name="edieresis" unicode="&#xeb;" horiz-adv-x="1196" 
d="M725 1237q0 29 20 49q19 20 49 20t50 -20t20 -49t-20 -49t-49 -20t-49 20t-21 49zM352 1237q0 29 20 49t50 20q29 0 48 -20t19 -49t-19 -49t-48 -20q-30 0 -50 20t-20 49zM611 950q-165 0 -289 -112t-144 -281h864q-20 169 -143 281t-288 112zM176 508v-6
q0 -184 128 -316t308 -135q113 0 208 55t153 150q12 16 37 6q20 -12 6 -35q-66 -103 -174 -165t-230 -62q-201 2 -342 148t-145 354q4 209 145 355q140 147 336 147t334 -134t154 -329v-9q-4 -25 -25 -24h-893z" />
    <glyph glyph-name="igrave" unicode="&#xec;" horiz-adv-x="575" 
d="M338 1179q0 -11 -24 -2t-40 27l-145 158q-27 27 -20 37q1 29 35 30t59 -36l127 -191q8 -12 8 -23zM246 27q0 -27 -26 -27t-25 27v952q-1 25 25 25t26 -25v-952z" />
    <glyph glyph-name="iacute" unicode="&#xed;" horiz-adv-x="575" 
d="M238 1393q26 37 60 37t34 -31q6 -10 -21 -37l-145 -158q-16 -18 -40 -27t-24 3q0 10 9 22zM246 27q0 -27 -26 -27t-25 27v952q-1 25 25 25t26 -25v-952z" />
    <glyph glyph-name="icircumflex" unicode="&#xee;" horiz-adv-x="575" 
d="M233 1419h17q27 0 57 -37l148 -180q10 -12 10 -24q-11 -6 -27 -5t-55 39l-143 154l-142 -156q-37 -37 -51 -36l-29 4q0 12 11 24l147 180q31 37 57 37zM217 27v952q0 25 26 25t25 -25v-952q0 -11 -7 -19t-17 -8q-27 0 -27 27z" />
    <glyph glyph-name="idieresis" unicode="&#xef;" horiz-adv-x="575" 
d="M360 1237q0 29 20 49t50 20q29 0 49 -20q21 -20 21 -49t-20 -49t-50 -20t-50 20t-20 49zM-12 1237q0 29 20 49t49 20t48 -20t19 -49t-18 -49q-20 -20 -49 -20t-49 20t-20 49zM219 27v952q0 25 26 25t25 -25v-952q0 -11 -7 -19t-17 -8q-27 0 -27 27z" />
    <glyph glyph-name="ntilde" unicode="&#xf1;" 
d="M334 1167q-33 0 -33 27q0 4 11 40q10 36 60 74t91 38t135 -39t129 -39q63 0 102 88q0 2 6 18t21 17q37 0 37 -35q0 -12 -4 -25q-45 -139 -162 -139q-37 0 -131 40t-131 40q-63 0 -98 -80q-12 -25 -33 -25zM244 27q0 -27 -25 -27h-8q-4 0 -11 7t-7 16v956q-1 25 25 25
t26 -25v-184q53 94 147 151t207 58q166 0 285 -119t118 -287v-571q1 -27 -25 -27t-26 27v571q0 146 -103 250t-249 104t-250 -103t-104 -251v-571z" />
    <glyph glyph-name="ograve" unicode="&#xf2;" horiz-adv-x="1310" 
d="M711 1180q-1 -12 -25 -3t-39 27l-145 158q-27 27 -21 37q0 29 35 30t59 -36l127 -191q8 -12 9 -22zM170 502q0 -186 124 -318t298 -133q174 0 299 132q125 133 125 319t-125 318t-299 132t-298 -132t-124 -318zM119 502q0 207 138 354q138 148 335 148t336 -148t139 -354
t-139 -354t-336 -148t-335 148t-138 354z" />
    <glyph glyph-name="oacute" unicode="&#xf3;" horiz-adv-x="1310" 
d="M473 1179q0 11 8 23l127 191q24 37 50 37t35 -7t9 -24q6 -10 -20 -37l-145 -158q-17 -18 -41 -27t-23 2zM170 502q0 -186 124 -318t298 -133q174 0 299 132q125 133 125 319t-125 318t-299 132t-298 -132t-124 -318zM119 502q0 207 138 354q138 148 335 148t336 -148
t139 -354t-139 -354t-336 -148t-335 148t-138 354z" />
    <glyph glyph-name="ocircumflex" unicode="&#xf4;" horiz-adv-x="1310" 
d="M582 1419h16q27 0 57 -37l148 -180q10 -12 10 -22t-10 -8q-9 2 -21 2t-51 38l-143 154l-142 -156q-37 -37 -51 -36l-28 4q0 12 10 24l147 180q31 37 58 37zM170 502q0 -186 124 -318t298 -133q174 0 299 132q125 133 125 319t-125 318t-299 132t-298 -132t-124 -318z
M119 502q0 207 138 354q138 148 335 148t336 -148t139 -354t-139 -354t-336 -148t-335 148t-138 354z" />
    <glyph glyph-name="otilde" unicode="&#xf5;" horiz-adv-x="1310" 
d="M330 1167q-33 0 -33 27q0 4 11 40q10 36 60 74t91 38t136 -39t128 -39q63 0 102 88q-1 17 9 26q10 8 18 9q37 0 37 -35q0 -12 -4 -25q-45 -139 -162 -139q-37 0 -131 40t-131 40q-64 0 -99 -80q-12 -25 -32 -25zM170 502q0 -186 124 -318t298 -133q174 0 299 132
q125 133 125 319t-125 318t-299 132t-298 -132t-124 -318zM119 502q0 207 138 354q138 148 335 148t336 -148t139 -354t-139 -354t-336 -148t-335 148t-138 354z" />
    <glyph glyph-name="odieresis" unicode="&#xf6;" horiz-adv-x="1310" 
d="M709 1237q0 29 20 49t49 20t49 -20q21 -20 21 -49t-20 -49t-50 -20q-29 0 -49 20t-20 49zM336 1237q0 29 20 49t50 20t48 -20q19 -20 19 -49t-19 -49t-48 -20q-30 0 -50 20t-20 49zM170 502q0 -186 124 -318t298 -133q174 0 299 132q125 133 125 319t-125 318t-299 132
t-298 -132t-124 -318zM119 502q0 207 138 354q138 148 335 148t336 -148t139 -354t-139 -354t-336 -148t-335 148t-138 354z" />
    <glyph glyph-name="divide" unicode="&#xf7;" horiz-adv-x="1269" 
d="M561 324q0 38 28 66q29 28 67 28t66 -28t28 -66t-28 -67q-28 -28 -67 -28t-67 28t-27 67zM561 1120q0 39 28 67q29 27 67 27t66 -28t28 -66t-28 -66t-67 -28t-67 28t-27 66zM180 672q-20 0 -35 14q-14 14 -14 34t14 36q14 14 35 14h910q20 0 34 -14t14 -34t-14 -36
q-14 -14 -34 -14h-910z" />
    <glyph glyph-name="oslash" unicode="&#xf8;" horiz-adv-x="1310" 
d="M592 952q-174 0 -298 -132t-124 -322t136 -327l588 646q-1 2 -3 3q-125 132 -299 132zM119 497q0 212 138 359q138 148 335 148t336 -148v-1l96 106q16 16 36 0q19 -16 3 -35l-101 -110q105 -135 105 -328q0 -192 -139 -340t-336 -148q-162 0 -284 100l-109 -120
q-7 -17 -35 -3q-18 18 2 39l105 117q-152 152 -152 364zM1016 487q0 172 -89 290l-584 -639q107 -86 265 -86t283 131q125 132 125 304z" />
    <glyph glyph-name="ugrave" unicode="&#xf9;" 
d="M170 406v571q0 27 27 27q10 0 17 -8t7 -19v-571q1 -146 103 -250t247 -104t249 102q104 104 104 252v571q0 10 8 18t18 9q27 0 27 -27v-571q0 -168 -119 -287t-286 -119q-166 0 -284 119t-118 287zM625 1180q-1 -14 -25 -4t-39 28l-145 158q-27 27 -21 37q0 29 35 30
t59 -36l127 -191q8 -12 9 -22z" />
    <glyph glyph-name="uacute" unicode="&#xfa;" 
d="M602 1393q26 37 60 37t34 -31q6 -10 -20 -37l-146 -158q-16 -18 -40 -27t-23 2q0 11 8 23zM170 406v571q0 27 27 27q10 0 17 -8t7 -19v-571q1 -146 103 -250t247 -104t249 102q104 104 104 252v571q0 10 8 18t18 9q27 0 27 -27v-571q0 -168 -119 -287t-286 -119
q-166 0 -284 119t-118 287z" />
    <glyph glyph-name="ucircumflex" unicode="&#xfb;" 
d="M170 406v571q0 27 27 27q10 0 17 -8t7 -19v-571q1 -146 103 -250t247 -104t249 102q104 104 104 252v571q0 10 8 18t18 9q27 0 27 -27v-571q0 -168 -119 -287t-286 -119q-166 0 -284 119t-118 287zM541 1419h16q27 0 57 -37l148 -180q10 -12 10 -22t-10 -8t-22 2t-50 38
l-143 154l-141 -156q-37 -37 -52 -36l-28 4q0 12 10 24l147 180q31 37 58 37z" />
    <glyph glyph-name="udieresis" unicode="&#xfc;" 
d="M692 1237q0 29 20 49t50 20q29 0 49 -20t20 -49t-20 -49t-49 -20q-30 0 -50 20t-20 49zM319 1237q1 29 21 49t49 20t48 -20t19 -49t-18 -49q-20 -20 -49 -20t-49 20t-21 49zM170 406v571q0 27 27 27q10 0 17 -8t7 -19v-571q1 -146 103 -250t247 -104t249 102
q104 104 104 252v571q0 10 8 18t18 9q27 0 27 -27v-571q0 -168 -119 -287t-286 -119q-166 0 -284 119t-118 287z" />
    <glyph glyph-name="yacute" unicode="&#xfd;" horiz-adv-x="1204" 
d="M907 977v-920q0 -195 -137 -333t-334 -138q-106 0 -205 49q-25 10 -10 35q8 23 31 13q90 -45 184 -45q174 0 297 122t123 297v152q-49 -93 -142 -149t-204 -56q-168 0 -286 118t-118 284v571q0 27 27 27q9 0 17 -8t8 -19v-571q0 -146 103 -248t245 -102t244 98
q100 98 106 237v590q0 12 6 12q9 9 21 11h6q18 -13 18 -27zM469 1178q0 12 8 24l127 191q24 37 50 37t35 -7t9 -24q6 -10 -20 -37l-146 -158q-16 -18 -40 -28t-23 2z" />
    <glyph glyph-name="ydieresis" unicode="&#xff;" horiz-adv-x="1204" 
d="M907 977v-920q0 -195 -137 -333t-334 -138q-106 0 -205 49q-25 10 -10 35q8 23 31 13q90 -45 184 -45q174 0 297 122t123 297v152q-49 -93 -142 -149t-204 -56q-168 0 -286 118t-118 284v571q0 27 27 27q9 0 17 -8t8 -19v-571q0 -146 103 -248t245 -102t244 98
q100 98 106 237v590q0 12 6 12q9 9 21 11h6q18 -13 18 -27zM621 1237q0 29 20 49t49 20t49 -20q21 -20 21 -49t-20 -49t-50 -20q-29 0 -49 20t-20 49zM248 1237q0 29 20 49t49 20t49 -20t19 -49q0 -29 -19 -49q-18 -20 -48 -20t-50 20t-20 49z" />
    <glyph glyph-name="OE" unicode="&#x152;" horiz-adv-x="2955" 
d="M848 1401q-264 -1 -454 -201t-189 -484q0 -284 188 -484t455 -203q264 3 452 203t191 483q-3 285 -191 485t-452 201zM2296 0h-764q-25 0 -25 27v440q-76 -219 -255 -356t-404 -138q-291 0 -494 216q-202 217 -202 525t202 524q203 216 494 216q225 0 404 -137t255 -356
v446q0 23 25 27h764q24 0 24 -26t-24 -26h-737v-639h649q24 1 24 -25t-24 -26h-649v-641h737q25 1 25 -25t-25 -26z" />
    <glyph glyph-name="oe" unicode="&#x153;" horiz-adv-x="2160" 
d="M1508 948q-166 0 -288 -112t-143 -281h862q-20 169 -143 281t-288 112zM170 502q0 -186 124 -318t298 -133q174 0 299 132q125 133 125 319t-125 318t-299 132t-298 -132t-124 -318zM592 0q-197 0 -335 147t-138 355t138 354q138 147 335 148q158 0 284 -100t171 -257
q47 156 174 255t303 99t314 -133t153 -329v-9q-4 -25 -25 -24h-891v-6q0 -182 127 -314t307 -135q113 0 208 55t153 150q12 16 37 6q20 -12 6 -35q-65 -103 -173 -165t-250 -61t-268 101q-128 100 -175 254q-45 -156 -171 -256t-284 -100z" />
    <glyph glyph-name="Scaron" unicode="&#x160;" horiz-adv-x="1310" 
d="M668 -10q-160 0 -294 62t-183 99q-48 37 -62 51t4 33q17 17 35 1t68 -54t179 -89q128 -52 253 -52q207 0 349 102t142 252q0 118 -67 176q-37 33 -82 63t-135 52q-91 22 -169 40t-176 47q-99 28 -145 59q-45 32 -85 68q-73 66 -74 203q-1 138 129 238q130 101 302 101
t278 -55q107 -55 137 -84t40 -41t-8 -31q-23 -14 -37 2q-156 156 -397 156q-162 0 -277 -84t-114 -203q0 -177 190 -251q85 -34 209 -63q306 -71 381 -121q109 -76 134 -154q17 -52 17 -118q0 -169 -156 -287t-386 -118zM700 1571h-16q-27 0 -57 37l-148 180q-10 12 -10 20
t3 10q3 1 12 0q8 -1 18 -1t47 -37l141 -156l144 154q39 39 55 39l26 -5q0 -12 -10 -24l-147 -180q-31 -37 -58 -37z" />
    <glyph glyph-name="scaron" unicode="&#x161;" horiz-adv-x="1017" 
d="M514 0q-94 0 -208 45t-169 100q-18 18 -2 37q21 18 35 4q55 -53 156 -94q102 -41 188 -41q137 0 235 70q97 70 97 158t-47 130t-114 64q-66 22 -140 38q-213 49 -277 105q-27 25 -49 68q-23 43 -22 96q0 100 93 172q94 72 204 72t204 -39t125 -84q16 -16 -2 -37
q-20 -18 -37 2q-104 104 -270 105q-108 1 -186 -55t-78 -136q0 -104 93 -149q71 -35 172 -59q102 -23 180 -45t119 -59q87 -79 86 -189q0 -111 -112 -195t-274 -84zM520 1110h-16q-27 0 -58 37l-147 180q-10 13 -10 21t3 9t12 0q8 -1 18 -1t47 -37l141 -156l143 154
q39 39 56 39l26 -4q0 -12 -10 -25l-147 -180q-31 -37 -58 -37z" />
    <glyph glyph-name="Ydieresis" unicode="&#x178;" horiz-adv-x="1466" 
d="M623 27v673l-502 691q-20 20 6 34q18 16 35 -4l487 -669l486 669q19 18 39 3t6 -33l-506 -691v-673q0 -27 -26 -27t-25 27zM772 1591q0 29 20 49t50 20q29 0 49 -20t20 -49t-20 -49t-49 -20q-30 0 -50 20t-20 49zM401 1591q1 29 21 49t49 20t49 -20t20 -49t-20 -49
t-49 -20t-49 20t-21 49z" />
    <glyph glyph-name="florin" unicode="&#x192;" horiz-adv-x="1036" 
d="M828 1444q142 0 143 -49q0 -12 -4 -14q-4 -3 -6 -5t-12 -2h-23q31 0 -2 4l-105 8q-90 12 -152 -54t-83 -181l-52 -291h279q47 0 47 -28t-47 -27h-295l-102 -563q-27 -128 -78 -186t-136 -58t-85 35q0 18 16 24t55 6q76 9 110 51t50 134l100 557h-184q-47 -1 -47 27t47 28
h201l53 297q30 151 100 219t212 68z" />
    <glyph glyph-name="circumflex" unicode="&#x2c6;" horiz-adv-x="1024" 
d="M504 1475h16q27 0 58 -37l147 -181q10 -12 10 -22t-10 -8t-21 2t-51 39l-143 153l-141 -155q-37 -37 -52 -37l-28 4q0 12 10 24l147 181q31 37 58 37z" />
    <glyph glyph-name="tilde" unicode="&#x2dc;" horiz-adv-x="1024" 
d="M248 1208q-33 0 -33 27q0 4 11 40q10 36 60 74q50 37 91 37t135 -38t129 -39q63 0 102 88q0 2 6 18t21 17q37 0 37 -35q0 -12 -4 -25q-45 -139 -162 -139q-37 0 -131 40t-131 40q-63 0 -98 -80q-12 -25 -33 -25z" />
    <glyph glyph-name="endash" unicode="&#x2013;" horiz-adv-x="1081" 
d="M135 608q0 41 53 41h705q53 0 53 -41q0 -35 -53 -35h-705q-27 -3 -40 9t-13 26z" />
    <glyph glyph-name="emdash" unicode="&#x2014;" horiz-adv-x="1839" 
d="M135 608q0 41 53 41h879q53 0 53 -41q0 -35 -53 -35h-879q-27 -3 -40 9t-13 26z" />
    <glyph glyph-name="quoteleft" unicode="&#x2018;" horiz-adv-x="471" 
d="M350 1409q0 -16 -16 -27q-104 -57 -96 -157q55 -14 55 -72v-43q1 -29 -19 -48q-20 -20 -49 -20t-48 20t-19 48v51q0 159 60 219t96 60t36 -31z" />
    <glyph glyph-name="quoteright" unicode="&#x2019;" horiz-adv-x="471" 
d="M121 1075q0 16 16 27q104 57 96 158q-55 14 -55 71v43q0 27 20 47q20 21 48 21q29 0 48 -20t19 -48v-51q-1 -159 -61 -219t-96 -60t-35 31z" />
    <glyph glyph-name="quotesinglbase" unicode="&#x201a;" horiz-adv-x="471" 
 />
    <glyph glyph-name="quotedblleft" unicode="&#x201c;" horiz-adv-x="839" 
d="M350 1409q0 -16 -16 -27q-104 -57 -96 -157q55 -14 55 -72v-43q1 -29 -19 -48q-20 -20 -49 -20t-48 20t-19 48v51q0 159 60 219t96 60t36 -31zM719 1409q0 -16 -17 -27q-104 -57 -96 -157q55 -14 56 -72v-43q0 -29 -20 -48q-20 -20 -48 -20q-29 0 -48 20t-20 48v51
q0 159 61 219t97 60t35 -31z" />
    <glyph glyph-name="quotedblright" unicode="&#x201d;" horiz-adv-x="839" 
d="M489 1075q0 16 17 27q104 57 96 158q-55 14 -55 71v43q0 27 19 47q19 21 48 21q28 0 48 -20t20 -48v-51q0 -159 -60 -219t-97 -60q-36 0 -36 31zM121 1075q0 16 16 27q104 57 96 158q-55 14 -55 71v43q0 27 20 47q20 21 48 21q29 0 48 -20t19 -48v-51q-1 -159 -61 -219
t-96 -60t-35 31z" />
    <glyph glyph-name="quotedblbase" unicode="&#x201e;" horiz-adv-x="839" 
d="M479 -184q0 16 17 26q104 57 96 158q-55 14 -55 72v43q0 29 20 48t47 19t47 -19t21 -48v-52q0 -159 -61 -219t-97 -60t-35 32zM111 -184q0 16 16 26q104 57 96 158q-55 14 -55 72v43q0 29 19 48t49 19t48 -19q19 -19 19 -48v-52q-1 -159 -61 -219t-96 -60t-35 32z" />
    <glyph glyph-name="ellipsis" unicode="&#x2026;" horiz-adv-x="1392" 
d="M1032 61q0 37 26 63t62 26t63 -26q25 -26 25 -63t-26 -63t-62 -25q-36 -1 -62 25t-26 63zM600 61q0 37 26 63t62 26t63 -26q25 -26 25 -63t-26 -63t-62 -25q-36 -1 -62 25t-26 63zM168 61q0 37 26 63t62 26t62 -26t26 -63t-26 -63t-62 -25q-36 -1 -62 25t-26 63z" />
    <glyph glyph-name="guilsinglleft" unicode="&#x2039;" horiz-adv-x="636" 
d="M113 522q0 18 20 45l281 367q8 12 32 8t27 -22q2 -18 -8 -31l-289 -369l289 -364q10 -12 14 -26q11 -36 -29 -36q-24 0 -36 19l-281 364q-20 27 -20 45z" />
    <glyph glyph-name="guilsinglright" unicode="&#x203a;" horiz-adv-x="636" 
d="M516 522q0 -18 -20 -45l-281 -364q-11 -19 -35 -19q-40 -1 -30 36q4 13 14 26l289 364l-289 369q-10 13 -8 31t26 22t33 -8l281 -367q20 -27 20 -45z" />
    <glyph glyph-name="trademark" unicode="&#x2122;" horiz-adv-x="1413" 
d="M1106 827v562l-225 -314q-8 -4 -11 -4h-4q-4 0 -8 4l-227 314v-562q0 -10 -10 -10t-11 10v594q0 20 21 9l239 -330l236 330h2q4 4 11 4t7 -13v-594q0 -10 -10 -10t-10 10zM262 827v586h-207q-10 0 -10 10t10 11h430q12 0 13 -11q0 -10 -13 -10h-202v-586q-1 -10 -11 -10
t-10 10z" />
    <glyph glyph-name="percent" horiz-adv-x="1687" 
d="M991 350q1 -144 83 -242t190 -98t186 98t78 238v4q0 144 -82 242t-191 98t-187 -99t-77 -237v-4zM162 1083q0 -145 80 -243t190 -99t186 97t76 241v4q0 145 -80 243t-190 99q-110 0 -186 -99t-76 -239v-4zM1575 350q1 -150 -89 -258t-228 -108t-226 108t-88 254v4
q0 150 89 258t227 109q138 0 227 -108q88 -108 88 -255v-4zM332 6q-10 0 -15 8t2 19l1016 1386q10 15 23 15t18 -13v-2q2 -6 -26 -47l-998 -1356q-10 -10 -20 -10zM427 717q-138 -1 -226 107t-88 255v4q0 151 89 259t227 108t226 -108t88 -255v-4q0 -150 -89 -258t-227 -108
z" />
    </font>
</defs>
</svg>
